<svg xmlns="http://www.w3.org/2000/svg" viewBox="0 0 100 100" width="100" height="100">
    <!-- Cart Handle -->
    <path d="M8 15 L18 15 C19 15 20 16 20 17 C20 18 19 19 18 19 L16 19"
        fill="none"
        stroke="#000000"
        stroke-width="3"
        stroke-linecap="round"/>

    <!-- Cart Body -->
    <path d="M16 19 L22 50 C22.5 53 25 55 28 55 L75 55 C78 55 80.5 53 81 50 L85 30 C85.5 28 84 27 82 27 L25 27"
        fill="none"
        stroke="#000000"
        stroke-width="3"
        stroke-linecap="round"
        stroke-linejoin="round"/>

    <!-- Bottom Cart Shelf -->
    <path d="M20 65 L85 65 C88 65 90 67 90 70 C90 73 88 75 85 75 L30 75 C27 75 25 73 25 70"
        fill="none"
        stroke="#000000"
        stroke-width="3"
        stroke-linecap="round"/>

    <!-- Cart Wheels -->
    <circle cx="35" cy="85" r="6"
        fill="none"
        stroke="#000000"
        stroke-width="3"/>
    <circle cx="75" cy="85" r="6"
        fill="none"
        stroke="#000000"
        stroke-width="3"/>
</svg>