<svg width="33" height="33" viewBox="0 0 33 33" fill="none" xmlns="http://www.w3.org/2000/svg">
<g clip-path="url(#clip0_0_480)">
<path d="M32.5 16.5C32.5 7.66344 25.3366 0.5 16.5 0.5C7.66344 0.5 0.5 7.66344 0.5 16.5C0.5 25.3366 7.66344 32.5 16.5 32.5C25.3366 32.5 32.5 25.3366 32.5 16.5Z" fill="#242424"/>
<path d="M17.8418 24.5001V17.2011H20.4953L20.8932 14.3565H17.8418V12.5403C17.8418 11.7168 18.0895 11.1556 19.3686 11.1556H21V8.61211C20.2104 8.53497 19.4168 8.4976 18.6227 8.50019C16.2705 8.50019 14.6603 9.82576 14.6603 12.2603V14.3565H12V17.2011H14.6603V24.5001H17.8418Z" fill="#FDFDFD"/>
</g>
<defs>
<clipPath id="clip0_0_480">
<rect width="32" height="32" fill="white" transform="translate(0.5 0.5)"/>
</clipPath>
</defs>
</svg>
