<svg width="20" height="20" viewBox="0 0 20 20" fill="none" xmlns="http://www.w3.org/2000/svg">
<path d="M19.9998 10.225C19.9998 9.56665 19.9415 8.94165 19.8415 8.33331H10.4248V12.0916H15.8165C15.5748 13.325 14.8665 14.3666 13.8165 15.075V17.575H17.0331C18.9165 15.8333 19.9998 13.2666 19.9998 10.225Z" fill="#4285F4"/>
<path d="M10.4249 20C13.1249 20 15.3832 19.1 17.0332 17.575L13.8165 15.075C12.9165 15.675 11.7749 16.0417 10.4249 16.0417C7.81655 16.0417 5.60821 14.2833 4.81655 11.9083H1.49988V14.4833C3.14154 17.75 6.51655 20 10.4249 20Z" fill="#34A853"/>
<path d="M4.81647 11.9083C4.60814 11.3083 4.4998 10.6667 4.4998 9.99999C4.4998 9.33333 4.61647 8.69166 4.81647 8.09166V5.51666H1.4998C0.816471 6.86666 0.424805 8.38333 0.424805 9.99999C0.424805 11.6167 0.816471 13.1333 1.4998 14.4833L4.81647 11.9083Z" fill="#FBBC05"/>
<path d="M10.4249 3.95833C11.8999 3.95833 13.2165 4.46667 14.2582 5.45834L17.1082 2.60833C15.3832 0.991668 13.1249 0 10.4249 0C6.51655 0 3.14154 2.25 1.49988 5.51667L4.81655 8.09167C5.60821 5.71667 7.81655 3.95833 10.4249 3.95833Z" fill="#EA4335"/>
</svg>
